<?xml version="1.0" encoding="utf-8"?>
<!-- Generator: Adobe Illustrator 26.0.1, SVG Export Plug-In . SVG Version: 6.00 Build 0)  -->
<svg version="1.1" id="Layer_1" xmlns="http://www.w3.org/2000/svg" xmlns:xlink="http://www.w3.org/1999/xlink" x="0px" y="0px"
	 viewBox="0 0 504 504" style="enable-background:new 0 0 504 504;" xml:space="preserve">
<style type="text/css">
	.st0{fill:#FFFFFF;}
	.st1{fill:#E2F2FF;}
	.st2{fill:#229BFF;}
	.st3{font-family:'Roboto-Black';}
	.st4{font-size:90.7095px;}
</style>
<g>
	<path d="M253.24,221.77c-1.6-33.17-30.25-58.65-63.47-58.65h-43.04c-22.98,0-41.57,18.64-41.57,41.57v118.39
		c0,4.77,5.76,7.17,9.15,3.77l40.25-40.25h37.04c17.04,0,32.47-6.89,43.65-18.07c2.97-2.97,5.62-6.18,7.88-9.67
		C250.12,248.33,253.95,235.5,253.24,221.77z M231.34,251.02c-0.57,0.85-1.13,1.7-1.75,2.5l-13.21-33.13
		c-2.69-6.61-10.19-9.91-16.89-7.22l-51.95,20.76c-6.7,2.64-9.91,10.19-7.27,16.8l8.64,21.71h-0.19l-29.4,29.4v-97.11
		c0-15.15,12.32-27.46,27.42-27.46h43.04c26,0,48.13,20.29,49.36,45.21C239.6,232.76,236.96,242.62,231.34,251.02z"/>
	<text transform="matrix(1 0 0 1 269.1951 256.3826)" class="st3 st4">Pay</text>
</g>
</svg>
