<?xml version="1.0" encoding="utf-8"?>
<!-- Generator: Adobe Illustrator 26.0.1, SVG Export Plug-In . SVG Version: 6.00 Build 0)  -->
<svg version="1.1" id="Layer_1" xmlns="http://www.w3.org/2000/svg" xmlns:xlink="http://www.w3.org/1999/xlink" x="0px" y="0px"
	 viewBox="0 0 504 504" style="enable-background:new 0 0 504 504;" xml:space="preserve">
<style type="text/css">
	.st0{fill:#FFFFFF;}
	.st1{fill:#E2F2FF;}
	.st2{fill:#229BFF;}
	.st3{font-family:'Roboto-Black';}
	.st4{font-size:150.1457px;}
</style>
<g>
	<path class="st1" d="M326.71,202.22c-0.94,1.41-1.88,2.81-2.89,4.14c-2.19,2.89-4.61,5.7-7.19,8.28
		c-14.84,14.92-34.68,23.04-55.69,23.04h-71l-48.66,48.66V125.6c0-25.07,20.39-45.46,45.38-45.46h71.23
		c43.04,0,79.67,33.59,81.7,74.83C340.38,171.99,336.01,188.32,326.71,202.22z"/>
	<path class="st2" d="M362.97,153.79c-2.66-54.91-50.07-97.09-105.05-97.09h-71.23c-38.04,0-68.81,30.85-68.81,68.81v195.97
		c0,7.89,9.53,11.87,15.15,6.25l66.63-66.63h61.31c28.2,0,53.74-11.4,72.25-29.92c4.92-4.92,9.29-10.23,13.04-16.01
		C357.81,197.77,364.14,176.52,362.97,153.79z M326.73,202.22c-0.94,1.41-1.87,2.81-2.89,4.14l-21.87-54.83
		c-4.45-10.93-16.87-16.4-27.96-11.95l-86,34.37c-11.09,4.37-16.4,16.87-12.03,27.81l14.29,35.93h-0.31l-48.66,48.66V125.6
		c0-25.07,20.39-45.46,45.38-45.46h71.23c43.04,0,79.67,33.59,81.7,74.83C340.4,171.99,336.02,188.32,326.73,202.22z"/>
	<text transform="matrix(1 0 0 1 108.7938 463.3117)" class="st2 st3 st4">Pay</text>
</g>
</svg>
