<?xml version="1.0" encoding="utf-8"?>
<!-- Generator: Adobe Illustrator 26.0.1, SVG Export Plug-In . SVG Version: 6.00 Build 0)  -->
<svg version="1.1" id="Layer_1" xmlns="http://www.w3.org/2000/svg" xmlns:xlink="http://www.w3.org/1999/xlink" x="0px" y="0px"
	 viewBox="0 0 504 504" style="enable-background:new 0 0 504 504;" xml:space="preserve">
<style type="text/css">
	.st0{fill:#FFFFFF;}
	.st1{fill:#E2F2FF;}
	.st2{fill:#229BFF;}
</style>
<g>
	<path d="M132.08,57.2c-31.42,10.67-54.14,40.51-54.14,75.57v282.06l-0.02,0.02V132.77C77.92,97.7,100.64,67.86,132.08,57.2z"/>
	<path d="M141.57,54.62c-3.24,0.67-6.4,1.53-9.49,2.58C135.16,56.14,138.33,55.28,141.57,54.62z"/>
	<path d="M398.25,274.48c0,0.01,0,0.01-0.01,0.02c-3.84,5.07-8.09,10-12.61,14.53c-26.04,26.18-60.86,40.43-97.73,40.43H163.88
		l-25.08-63.05c-7.68-19.19,1.64-41.12,21.11-48.79l150.91-60.31c19.46-7.82,41.25,1.78,49.07,20.97L398.25,274.48z"/>
	<path d="M466.93,182.25C462.27,85.9,379.08,11.88,282.58,11.88h-125c-66.75,0-120.76,54.14-120.76,120.76v343.89
		c0,13.84,16.73,20.84,26.59,10.97l116.92-116.92h107.6c49.48,0,94.3-20.01,126.78-52.5c8.64-8.63,16.31-17.95,22.89-28.09
		C457.89,259.42,468.99,222.14,466.93,182.25z M403.34,267.23c-1.65,2.47-3.29,4.94-5.08,7.27l-0.01-0.02l-38.36-96.2
		c-7.82-19.19-29.61-28.79-49.07-20.97l-150.91,60.31c-19.47,7.67-28.79,29.6-21.11,48.79l25.08,63.05h-0.54l-85.4,85.39V132.77
		c0-35.06,22.72-64.9,54.14-75.57c3.09-1.05,6.25-1.91,9.49-2.58c5.17-1.06,10.53-1.62,16.01-1.62h125
		c15.92,0,31.35,2.62,45.81,7.44c54.12,18.01,94.75,66.76,97.56,123.87C427.32,214.19,419.65,242.84,403.34,267.23z"/>
</g>
</svg>
