<?xml version="1.0" encoding="utf-8"?>
<!-- Generator: Adobe Illustrator 26.0.1, SVG Export Plug-In . SVG Version: 6.00 Build 0)  -->
<svg version="1.1" id="Layer_1" xmlns="http://www.w3.org/2000/svg" xmlns:xlink="http://www.w3.org/1999/xlink" x="0px" y="0px"
	 viewBox="0 0 504 504" style="enable-background:new 0 0 504 504;" xml:space="preserve">
<style type="text/css">
	.st0{fill:#FFFFFF;}
	.st1{fill:#E2F2FF;}
	.st2{fill:#229BFF;}
</style>
<g>
	<path class="st1" d="M403.31,267.23c-1.65,2.47-3.29,4.93-5.07,7.26c-3.84,5.07-8.09,10.01-12.61,14.53
		c-26.04,26.18-60.86,40.43-97.73,40.43H163.31l-85.39,85.39V132.77c0-44,35.77-79.77,79.63-79.77h125
		c75.52,0,139.81,58.94,143.37,131.31C427.3,214.19,419.62,242.83,403.31,267.23z"/>
	<path class="st2" d="M466.93,182.25C462.27,85.9,379.08,11.88,282.58,11.88h-125c-66.75,0-120.75,54.14-120.75,120.75v343.9
		c0,13.84,16.72,20.83,26.59,10.97l116.92-116.92h107.6c49.48,0,94.3-20.01,126.79-52.5c8.64-8.64,16.31-17.96,22.89-28.1
		C457.89,259.42,468.99,222.14,466.93,182.25z M403.34,267.23c-1.65,2.47-3.29,4.93-5.07,7.26l-38.38-96.22
		c-7.81-19.19-29.61-28.78-49.07-20.97l-150.91,60.31c-19.46,7.68-28.78,29.61-21.11,48.8l25.08,63.05h-0.55l-85.39,85.39V132.77
		c0-44,35.77-79.77,79.63-79.77h125c75.52,0,139.81,58.94,143.37,131.31C427.32,214.19,419.65,242.83,403.34,267.23z"/>
</g>
</svg>
